<?xml version="1.0" encoding="UTF-8" standalone="no"?>
<!-- Generator: Adobe Illustrator 19.0.0, SVG Export Plug-In . SVG Version: 6.00 Build 0)  -->

<svg
   xmlns:dc="http://purl.org/dc/elements/1.1/"
   xmlns:cc="http://creativecommons.org/ns#"
   xmlns:rdf="http://www.w3.org/1999/02/22-rdf-syntax-ns#"
   xmlns:svg="http://www.w3.org/2000/svg"
   xmlns="http://www.w3.org/2000/svg"
   xmlns:sodipodi="http://sodipodi.sourceforge.net/DTD/sodipodi-0.dtd"
   xmlns:inkscape="http://www.inkscape.org/namespaces/inkscape"
   version="1.1"
   x="0px"
   y="0px"
   viewBox="0 0 711 989"
   style="enable-background:new 0 0 711 989;"
   xml:space="preserve"
   id="svg2"
   inkscape:version="0.48.4 r9939"
   width="100%"
   height="100%"
   sodipodi:docname="LAMBDA2.svg"><metadata
   id="metadata34"><rdf:RDF><cc:Work
       rdf:about=""><dc:format>image/svg+xml</dc:format><dc:type
         rdf:resource="http://purl.org/dc/dcmitype/StillImage" /><dc:title></dc:title></cc:Work></rdf:RDF></metadata><defs
   id="defs32" /><sodipodi:namedview
   pagecolor="#ffffff"
   bordercolor="#666666"
   borderopacity="1"
   objecttolerance="10"
   gridtolerance="10"
   guidetolerance="10"
   inkscape:pageopacity="0"
   inkscape:pageshadow="2"
   inkscape:window-width="1366"
   inkscape:window-height="705"
   id="namedview30"
   showgrid="false"
   inkscape:zoom="0.67493306"
   inkscape:cx="326.80936"
   inkscape:cy="488.04265"
   inkscape:window-x="-8"
   inkscape:window-y="-8"
   inkscape:window-maximized="1"
   inkscape:current-layer="svg2" />
<style
   type="text/css"
   id="style4">
	.st0{fill:#EC695A;}
	.st1{fill:#32536E;}
	.st2{fill:#80B8C3;}
	.st3{fill:#4AB8A7;}
	.st4{opacity:0.37;fill:#010202;}
</style>
<g
   id="g3107"><g
     id="Camada_2">
	<polygon
   points="199.6,157.6 443,619.6 538.6,619.6 289.6,157.6  "
   class="st0"
   id="XMLID_1_" />
	<polygon
   points="198.3,158.9 170.2,235.6 240.6,235.5 198.7,157.6  "
   class="st1"
   id="XMLID_9_" />
	<polygon
   points="160.6,619.6 255.1,619.6 344.4,432.4 296.2,340.9  "
   class="st2"
   id="XMLID_10_" />
	<polygon
   points="569.3,538.3 538.6,619.6 494.8,538.3  "
   class="st3"
   id="XMLID_12_" />
	<polygon
   points="199.6,157.6 230.3,235.5 240.6,235.5  "
   class="st4"
   id="XMLID_14_" />
	<polyline
   points="538.6,619.6 537.7,617.4 507.3,538.3 494.8,538.3  "
   class="st4"
   id="XMLID_11_" />
	<polygon
   points="291.6,350.3 339.2,443.1 344.4,432.4 296.2,340.9  "
   class="st4"
   id="XMLID_13_" />
	
	
	
	
	
</g></g>
<g
   id="g3086"><g
     id="g3070"
     style="enable-background:new 0 0 711 989"><polygon
       id="XMLID_18_"
       class="st3"
       points="399.7,689.9 320.7,845.4 289.6,845.4 370.5,689.9  " /></g><polygon
     points="400.1,690.3 399.7,716.1 386.4,716.1 400,689.9  "
     class="st1"
     id="XMLID_17_"
     style="enable-background:new 0 0 711 989" /><polygon
     points="289.6,818.1 289.6,845.4 303.9,818.1  "
     class="st1"
     id="XMLID_4_"
     style="enable-background:new 0 0 711 989" /><polygon
     points="399.7,689.9 389.1,716.1 386.4,716.1  "
     class="st4"
     id="XMLID_3_"
     style="enable-background:new 0 0 711 989" /><polyline
     points="289.6,845.4 289.9,844.7 300.9,818.1 303.9,818.1  "
     class="st4"
     id="XMLID_2_"
     style="enable-background:new 0 0 711 989" /><g
     id="Camada_1">
	
	
	
	
	
	
	
	<g
   id="g3073"><polygon
     id="XMLID_22_"
     class="st1"
     points="465.9,845.4 423.1,799.8 423.1,735.4 465.9,689.8 526.4,689.8 569.3,735.4    569.3,799.8 526.4,845.4  " /><polyline
     id="XMLID_21_"
     class="st3"
     points="526.4,845.4 526.4,799.8 569.3,799.8  " /><polyline
     id="XMLID_20_"
     class="st3"
     points="423.1,735.4 465.9,735.4 465.9,689.8  " /><polygon
     id="XMLID_45_"
     class="st4"
     points="423.1,735.4 466.7,738.5 465.9,703 465.9,735.4 423.1,735.4  " /><polygon
     id="XMLID_46_"
     class="st4"
     points="526.4,841 523.9,798.9 558.1,799.8 526.4,799.8 526.4,841  " /></g>
	
	<g
   id="g3063"><polygon
     id="XMLID_25_"
     class="st3"
     points="239.2,689.6 221.1,716.1 169.7,716.1 180.4,689.6  " /><rect
     id="XMLID_24_"
     x="180.6"
     y="689.6"
     class="st1"
     width="58.6"
     height="156.1" /><polygon
     id="XMLID_23_"
     class="st3"
     points="250,818.1 239.2,845.8 239.2,818.1  " /><polygon
     id="XMLID_48_"
     class="st4"
     points="180.6,689.6 177.6,716.1 180.6,716.1  " /><polygon
     id="XMLID_49_"
     class="st4"
     points="239.2,818.1 242.3,818.1 239.2,845.8  " /></g>
</g></g>
</svg>