<?xml version="1.0" encoding="UTF-8" standalone="no"?>
<svg
   xmlns:dc="http://purl.org/dc/elements/1.1/"
   xmlns:cc="http://creativecommons.org/ns#"
   xmlns:rdf="http://www.w3.org/1999/02/22-rdf-syntax-ns#"
   xmlns:svg="http://www.w3.org/2000/svg"
   xmlns="http://www.w3.org/2000/svg"
   xmlns:sodipodi="http://sodipodi.sourceforge.net/DTD/sodipodi-0.dtd"
   xmlns:inkscape="http://www.inkscape.org/namespaces/inkscape"
   width="200pt"
   height="200pt"
   viewBox="0 0 200 200"
   version="1.1"
   id="svg2"
   inkscape:version="0.48.4 r9939"
   sodipodi:docname="logo.svg"
   inkscape:export-filename="C:\Matheus\Dev\Square Cube\Projetos\Github\JS4Girls\Repos\js4girls-fortaleza.github.io\src\images\logo.png"
   inkscape:export-xdpi="184.32001"
   inkscape:export-ydpi="184.32001">
  <metadata
     id="metadata14">
    <rdf:RDF>
      <cc:Work
         rdf:about="">
        <dc:format>image/svg+xml</dc:format>
        <dc:type
           rdf:resource="http://purl.org/dc/dcmitype/StillImage" />
        <dc:title></dc:title>
      </cc:Work>
    </rdf:RDF>
  </metadata>
  <defs
     id="defs12" />
  <sodipodi:namedview
     pagecolor="#ffffff"
     bordercolor="#666666"
     borderopacity="1"
     objecttolerance="10"
     gridtolerance="10"
     guidetolerance="10"
     inkscape:pageopacity="0"
     inkscape:pageshadow="2"
     inkscape:window-width="1366"
     inkscape:window-height="705"
     id="namedview10"
     showgrid="false"
     inkscape:zoom="0.944"
     inkscape:cx="125"
     inkscape:cy="125"
     inkscape:window-x="-8"
     inkscape:window-y="-8"
     inkscape:window-maximized="1"
     inkscape:current-layer="svg2" />
  <g
     id="#d9105aff">
    <path
       fill="#d9105a"
       opacity="1.00"
       d=" M 56.27 69.47 C 84.77 69.30 113.28 69.25 141.78 69.49 C 140.21 81.54 139.62 93.70 137.93 105.73 C 123.97 105.75 109.99 105.63 96.03 105.78 C 94.25 105.58 93.13 107.02 91.93 108.04 C 91.83 115.74 91.90 123.45 91.88 131.15 C 94.79 131.21 97.69 131.21 100.59 131.04 C 100.50 125.10 100.43 119.15 100.63 113.21 C 112.82 113.24 125.01 113.21 137.20 113.23 C 136.35 126.67 134.50 140.02 133.57 153.46 C 123.45 156.44 113.23 159.05 103.08 161.94 C 101.15 162.42 99.14 163.38 97.16 162.56 C 86.29 159.53 75.33 156.82 64.49 153.67 C 61.90 125.59 59.15 97.52 56.27 69.47 Z"
       id="path5" />
  </g>
  <g
     id="#ffffffff">
    <path
       fill="#ffffff"
       opacity="1.00"
       d=" M 86.77 43.77 C 91.09 38.75 94.74 33.15 98.83 27.93 C 102.46 32.75 106.08 37.57 109.68 42.42 C 110.46 43.84 112.11 44.15 113.51 44.67 C 118.83 46.37 124.14 48.15 129.45 49.90 C 126.88 53.46 124.28 56.99 121.72 60.55 C 129.82 60.63 137.93 60.45 146.04 60.63 C 148.69 60.65 150.57 63.51 149.98 66.00 C 147.09 95.98 144.14 125.96 141.25 155.93 C 141.30 158.00 140.10 160.14 137.95 160.54 C 125.61 163.95 113.26 167.31 100.91 170.67 C 98.94 171.37 96.94 170.61 95.02 170.12 C 83.31 166.82 71.53 163.74 59.83 160.42 C 57.91 159.99 56.85 158.08 56.83 156.23 C 53.90 126.13 50.95 96.03 48.06 65.94 C 47.49 63.47 49.37 60.65 51.99 60.63 C 59.97 60.44 67.96 60.63 75.95 60.55 C 73.38 56.99 70.78 53.45 68.21 49.89 C 74.38 47.79 80.65 45.99 86.77 43.77 M 56.27 69.47 C 59.15 97.52 61.90 125.59 64.49 153.67 C 75.33 156.82 86.29 159.53 97.16 162.56 C 99.14 163.38 101.15 162.42 103.08 161.94 C 113.23 159.05 123.45 156.44 133.57 153.46 C 134.50 140.02 136.35 126.67 137.20 113.23 C 125.01 113.21 112.82 113.24 100.63 113.21 C 100.43 119.15 100.50 125.10 100.59 131.04 C 97.69 131.21 94.79 131.21 91.88 131.15 C 91.90 123.45 91.83 115.74 91.93 108.04 C 93.13 107.02 94.25 105.58 96.03 105.78 C 109.99 105.63 123.97 105.75 137.93 105.73 C 139.62 93.70 140.21 81.54 141.78 69.49 C 113.28 69.25 84.77 69.30 56.27 69.47 Z"
       id="path8" />
  </g>
</svg>
