<svg xmlns="http://www.w3.org/2000/svg" viewBox="0 0 711 989" id="svg2"><style id="style4">.st0{fill:#ec695a}.st1{fill:#32536e}.st2{fill:#80b8c3}.st3{fill:#4ab8a7}.st4{opacity:.37;fill:#010202}</style><g id="g3107"><g id="Camada_2"><path class="st0" id="XMLID_1_" d="M199.6 157.6l243.4 462h95.6l-249-462z"/><path class="st1" id="XMLID_9_" d="M198.3 158.9l-28.1 76.7 70.4-.1-41.9-77.9z"/><path class="st2" id="XMLID_10_" d="M160.6 619.6h94.5l89.3-187.2-48.2-91.5z"/><path class="st3" id="XMLID_12_" d="M569.3 538.3l-30.7 81.3-43.8-81.3z"/><path class="st4" id="XMLID_14_" d="M199.6 157.6l30.7 77.9h10.3z"/><path class="st4" id="XMLID_11_" d="M538.6 619.6l-.9-2.2-30.4-79.1h-12.5"/><path class="st4" id="XMLID_13_" d="M291.6 350.3l47.6 92.8 5.2-10.7-48.2-91.5z"/></g></g><g id="g3086"><g id="g3070"><path id="XMLID_18_" class="st3" d="M399.7 689.9l-79 155.5h-31.1l80.9-155.5z"/></g><path class="st1" id="XMLID_17_" d="M400.1 690.3l-.4 25.8h-13.3l13.6-26.2z"/><path class="st1" id="XMLID_4_" d="M289.6 818.1v27.3l14.3-27.3z"/><path class="st4" id="XMLID_3_" d="M399.7 689.9l-10.6 26.2h-2.7z"/><path class="st4" id="XMLID_2_" d="M289.6 845.4l.3-.7 11-26.6h3"/><g id="Camada_1"><g id="g3073"><path id="XMLID_22_" class="st1" d="M465.9 845.4l-42.8-45.6v-64.4l42.8-45.6h60.5l42.9 45.6v64.4l-42.9 45.6z"/><path id="XMLID_21_" class="st3" d="M526.4 845.4v-45.6h42.9"/><path id="XMLID_20_" class="st3" d="M423.1 735.4h42.8v-45.6"/><path id="XMLID_45_" class="st4" d="M423.1 735.4l43.6 3.1-.8-35.5v32.4h-42.8z"/><path id="XMLID_46_" class="st4" d="M526.4 841l-2.5-42.1 34.2.9h-31.7V841z"/></g><g id="g3063"><path id="XMLID_25_" class="st3" d="M239.2 689.6l-18.1 26.5h-51.4l10.7-26.5z"/><path id="XMLID_24_" class="st1" d="M180.6 689.6h58.6v156.1h-58.6z"/><path id="XMLID_23_" class="st3" d="M250 818.1l-10.8 27.7v-27.7z"/><path id="XMLID_48_" class="st4" d="M180.6 689.6l-3 26.5h3z"/><path id="XMLID_49_" class="st4" d="M239.2 818.1h3.1l-3.1 27.7z"/></g></g></g></svg>