<svg xmlns="http://www.w3.org/2000/svg" width="200pt" height="200pt" viewBox="0 0 200 200"><path fill="#d9105a" d="M56.27 69.47c28.5-.17 57.01-.22 85.51.02-1.57 12.05-2.16 24.21-3.85 36.24-13.96.02-27.94-.1-41.9.05-1.78-.2-2.9 1.24-4.1 2.26-.1 7.7-.03 15.41-.05 23.11 2.91.06 5.81.06 8.71-.11-.09-5.94-.16-11.89.04-17.83 12.19.03 24.38 0 36.57.02-.85 13.44-2.7 26.79-3.63 40.23-10.12 2.98-20.34 5.59-30.49 8.48-1.93.48-3.94 1.44-5.92.62-10.87-3.03-21.83-5.74-32.67-8.89-2.59-28.08-5.34-56.15-8.22-84.2z"/><path fill="#fff" d="M86.77 43.77c4.32-5.02 7.97-10.62 12.06-15.84 3.63 4.82 7.25 9.64 10.85 14.49.78 1.42 2.43 1.73 3.83 2.25 5.32 1.7 10.63 3.48 15.94 5.23-2.57 3.56-5.17 7.09-7.73 10.65 8.1.08 16.21-.1 24.32.08 2.65.02 4.53 2.88 3.94 5.37-2.89 29.98-5.84 59.96-8.73 89.93.05 2.07-1.15 4.21-3.3 4.61-12.34 3.41-24.69 6.77-37.04 10.13-1.97.7-3.97-.06-5.89-.55-11.71-3.3-23.49-6.38-35.19-9.7-1.92-.43-2.98-2.34-3-4.19-2.93-30.1-5.88-60.2-8.77-90.29-.57-2.47 1.31-5.29 3.93-5.31 7.98-.19 15.97 0 23.96-.08-2.57-3.56-5.17-7.1-7.74-10.66 6.17-2.1 12.44-3.9 18.56-6.12m-30.5 25.7c2.88 28.05 5.63 56.12 8.22 84.2 10.84 3.15 21.8 5.86 32.67 8.89 1.98.82 3.99-.14 5.92-.62 10.15-2.89 20.37-5.5 30.49-8.48.93-13.44 2.78-26.79 3.63-40.23-12.19-.02-24.38.01-36.57-.02-.2 5.94-.13 11.89-.04 17.83-2.9.17-5.8.17-8.71.11.02-7.7-.05-15.41.05-23.11 1.2-1.02 2.32-2.46 4.1-2.26 13.96-.15 27.94-.03 41.9-.05 1.69-12.03 2.28-24.19 3.85-36.24-28.5-.24-57.01-.19-85.51-.02z"/></svg>